<svg width="24" height="17" viewBox="0 0 24 17" fill="none" xmlns="http://www.w3.org/2000/svg">
<g clip-path="url(#clip0_12_480)">
<path d="M23.2417 1.72742L16.1304 8.793L23.2417 15.8586C23.3703 15.5899 23.4483 15.2928 23.4483 14.9756V2.61035C23.4483 2.29311 23.3703 1.99611 23.2417 1.72742Z" fill="#008CFF"/>
<path d="M21.3872 0.549561H2.06066C1.74342 0.549561 1.44643 0.627554 1.17773 0.756107L10.2668 9.7994C11.0705 10.6031 12.3774 10.6031 13.181 9.7994L22.2701 0.756107C22.0014 0.627554 21.7044 0.549561 21.3872 0.549561Z" fill="#008CFF"/>
<path d="M0.206546 1.72742C0.077993 1.99611 0 2.29311 0 2.61035V14.9756C0 15.2929 0.077993 15.5899 0.206546 15.8586L7.31792 8.793L0.206546 1.72742Z" fill="#008CFF"/>
<path d="M15.1587 9.76459L14.1524 10.7709C12.8133 12.11 10.6344 12.11 9.29537 10.7709L8.28911 9.76459L1.17773 16.8302C1.44643 16.9587 1.74342 17.0367 2.06066 17.0367H21.3872C21.7044 17.0367 22.0014 16.9587 22.2701 16.8302L15.1587 9.76459Z" fill="#008CFF"/>
</g>
<defs>
<clipPath id="clip0_12_480">
<rect width="23.4483" height="17" fill="white"/>
</clipPath>
</defs>
</svg>
