<svg width="19" height="18" viewBox="0 0 19 18" fill="none" xmlns="http://www.w3.org/2000/svg">
<path d="M14.2059 7.50002C14.2059 7.30111 14.1269 7.11034 13.9862 6.96969C13.8456 6.82904 13.6548 6.75002 13.4559 6.75002H4.76338L6.48838 5.03252C6.62961 4.89129 6.70895 4.69974 6.70895 4.50002C6.70895 4.30029 6.62961 4.10874 6.48838 3.96752C6.34716 3.82629 6.15561 3.74695 5.95588 3.74695C5.75616 3.74695 5.56461 3.82629 5.42338 3.96752L2.42338 6.96752C2.31932 7.07299 2.24882 7.20691 2.22079 7.35241C2.19276 7.4979 2.20845 7.64843 2.26588 7.78502C2.32215 7.92198 2.4177 8.03923 2.54049 8.12198C2.66328 8.20473 2.80782 8.24928 2.95588 8.25002H13.4559C13.6548 8.25002 13.8456 8.171 13.9862 8.03035C14.1269 7.8897 14.2059 7.69893 14.2059 7.50002ZM17.1459 10.215C17.0896 10.0781 16.9941 9.96081 16.8713 9.87806C16.7485 9.79531 16.604 9.75076 16.4559 9.75002H5.95588C5.75697 9.75002 5.56621 9.82904 5.42555 9.96969C5.2849 10.1103 5.20588 10.3011 5.20588 10.5C5.20588 10.6989 5.2849 10.8897 5.42555 11.0303C5.56621 11.171 5.75697 11.25 5.95588 11.25H14.6484L12.9234 12.9675C12.8531 13.0372 12.7973 13.1202 12.7592 13.2116C12.7211 13.303 12.7015 13.401 12.7015 13.5C12.7015 13.599 12.7211 13.6971 12.7592 13.7885C12.7973 13.8798 12.8531 13.9628 12.9234 14.0325C12.9931 14.1028 13.0761 14.1586 13.1675 14.1967C13.2588 14.2348 13.3569 14.2544 13.4559 14.2544C13.5549 14.2544 13.6529 14.2348 13.7443 14.1967C13.8357 14.1586 13.9187 14.1028 13.9884 14.0325L16.9884 11.0325C17.0925 10.9271 17.1629 10.7931 17.191 10.6476C17.219 10.5021 17.2033 10.3516 17.1459 10.215Z" fill="#008CFF"/>
</svg>
